<mxfile host="app.diagrams.net" modified="2023-06-18T17:13:09.483Z" agent="Mozilla/5.0 (Windows NT 10.0; Win64; x64) AppleWebKit/537.36 (KHTML, like Gecko) Chrome/114.0.0.0 Safari/537.36" etag="aLajiS2OglavIIBfdrt8" version="21.5.0" type="github">
  <diagram name="Page-1" id="X6mVhd4Yf-H2CYxpGJZF">
    <mxGraphModel dx="1687" dy="889" grid="1" gridSize="10" guides="1" tooltips="1" connect="1" arrows="1" fold="1" page="1" pageScale="1" pageWidth="827" pageHeight="1169" math="0" shadow="0">
      <root>
        <mxCell id="0" />
        <mxCell id="1" parent="0" />
        <mxCell id="GT7WTdpZBkYufSHzi7qh-5" style="edgeStyle=orthogonalEdgeStyle;rounded=0;orthogonalLoop=1;jettySize=auto;html=1;" edge="1" parent="1" source="GT7WTdpZBkYufSHzi7qh-1" target="GT7WTdpZBkYufSHzi7qh-3">
          <mxGeometry relative="1" as="geometry">
            <Array as="points">
              <mxPoint x="400" y="180" />
              <mxPoint x="400" y="180" />
            </Array>
          </mxGeometry>
        </mxCell>
        <mxCell id="GT7WTdpZBkYufSHzi7qh-8" value="Raspuns" style="edgeLabel;html=1;align=center;verticalAlign=middle;resizable=0;points=[];" vertex="1" connectable="0" parent="GT7WTdpZBkYufSHzi7qh-5">
          <mxGeometry x="-0.3333" y="1" relative="1" as="geometry">
            <mxPoint x="-29" y="-90" as="offset" />
          </mxGeometry>
        </mxCell>
        <mxCell id="GT7WTdpZBkYufSHzi7qh-9" style="edgeStyle=orthogonalEdgeStyle;rounded=0;orthogonalLoop=1;jettySize=auto;html=1;entryX=0.5;entryY=0;entryDx=0;entryDy=0;" edge="1" parent="1" source="GT7WTdpZBkYufSHzi7qh-1" target="GT7WTdpZBkYufSHzi7qh-10">
          <mxGeometry relative="1" as="geometry">
            <mxPoint x="530" y="480" as="targetPoint" />
            <Array as="points">
              <mxPoint x="420" y="510" />
            </Array>
          </mxGeometry>
        </mxCell>
        <mxCell id="GT7WTdpZBkYufSHzi7qh-1" value="&lt;b&gt;Controller&lt;/b&gt;" style="rounded=1;whiteSpace=wrap;html=1;" vertex="1" parent="1">
          <mxGeometry x="334" y="330" width="160" height="80" as="geometry" />
        </mxCell>
        <mxCell id="GT7WTdpZBkYufSHzi7qh-4" style="edgeStyle=orthogonalEdgeStyle;rounded=0;orthogonalLoop=1;jettySize=auto;html=1;" edge="1" parent="1" source="GT7WTdpZBkYufSHzi7qh-3" target="GT7WTdpZBkYufSHzi7qh-1">
          <mxGeometry relative="1" as="geometry">
            <Array as="points">
              <mxPoint x="420" y="180" />
              <mxPoint x="420" y="180" />
            </Array>
          </mxGeometry>
        </mxCell>
        <mxCell id="GT7WTdpZBkYufSHzi7qh-7" value="Cerere HTTP" style="edgeLabel;html=1;align=center;verticalAlign=middle;resizable=0;points=[];" vertex="1" connectable="0" parent="GT7WTdpZBkYufSHzi7qh-4">
          <mxGeometry x="-0.3" y="3" relative="1" as="geometry">
            <mxPoint x="37" y="-44" as="offset" />
          </mxGeometry>
        </mxCell>
        <mxCell id="GT7WTdpZBkYufSHzi7qh-3" value="&lt;b&gt;Frontend&lt;/b&gt;&lt;br&gt;(View)" style="rounded=1;whiteSpace=wrap;html=1;" vertex="1" parent="1">
          <mxGeometry x="334" y="40" width="160" height="80" as="geometry" />
        </mxCell>
        <mxCell id="GT7WTdpZBkYufSHzi7qh-11" style="edgeStyle=orthogonalEdgeStyle;rounded=0;orthogonalLoop=1;jettySize=auto;html=1;" edge="1" parent="1" source="GT7WTdpZBkYufSHzi7qh-10" target="GT7WTdpZBkYufSHzi7qh-1">
          <mxGeometry relative="1" as="geometry">
            <Array as="points">
              <mxPoint x="400" y="450" />
              <mxPoint x="400" y="450" />
            </Array>
          </mxGeometry>
        </mxCell>
        <mxCell id="GT7WTdpZBkYufSHzi7qh-14" style="edgeStyle=orthogonalEdgeStyle;rounded=0;orthogonalLoop=1;jettySize=auto;html=1;entryX=0.5;entryY=0;entryDx=0;entryDy=0;" edge="1" parent="1" source="GT7WTdpZBkYufSHzi7qh-10" target="GT7WTdpZBkYufSHzi7qh-13">
          <mxGeometry relative="1" as="geometry" />
        </mxCell>
        <mxCell id="GT7WTdpZBkYufSHzi7qh-15" style="edgeStyle=orthogonalEdgeStyle;rounded=0;orthogonalLoop=1;jettySize=auto;html=1;" edge="1" parent="1" source="GT7WTdpZBkYufSHzi7qh-10" target="GT7WTdpZBkYufSHzi7qh-12">
          <mxGeometry relative="1" as="geometry" />
        </mxCell>
        <mxCell id="GT7WTdpZBkYufSHzi7qh-10" value="&lt;b&gt;Service&lt;/b&gt;" style="rounded=1;whiteSpace=wrap;html=1;" vertex="1" parent="1">
          <mxGeometry x="334" y="510" width="160" height="60" as="geometry" />
        </mxCell>
        <mxCell id="GT7WTdpZBkYufSHzi7qh-12" value="&lt;b&gt;Repository&lt;br&gt;&lt;br&gt;&lt;/b&gt;" style="rounded=1;whiteSpace=wrap;html=1;" vertex="1" parent="1">
          <mxGeometry x="470" y="615" width="160" height="60" as="geometry" />
        </mxCell>
        <mxCell id="GT7WTdpZBkYufSHzi7qh-16" style="edgeStyle=orthogonalEdgeStyle;rounded=0;orthogonalLoop=1;jettySize=auto;html=1;" edge="1" parent="1" source="GT7WTdpZBkYufSHzi7qh-13" target="GT7WTdpZBkYufSHzi7qh-12">
          <mxGeometry relative="1" as="geometry" />
        </mxCell>
        <mxCell id="GT7WTdpZBkYufSHzi7qh-13" value="&lt;b&gt;Model&lt;/b&gt;" style="rounded=1;whiteSpace=wrap;html=1;" vertex="1" parent="1">
          <mxGeometry x="230" y="615" width="160" height="60" as="geometry" />
        </mxCell>
        <mxCell id="GT7WTdpZBkYufSHzi7qh-17" value="Filtre securitate" style="swimlane;startSize=0;verticalAlign=top;" vertex="1" collapsed="1" parent="1">
          <mxGeometry x="304" y="210" width="220" height="40" as="geometry">
            <mxRectangle x="300" y="270" width="230" height="30" as="alternateBounds" />
          </mxGeometry>
        </mxCell>
      </root>
    </mxGraphModel>
  </diagram>
</mxfile>
